<svg viewBox="0 0 34 29" fill="none" xmlns="http://www.w3.org/2000/svg">
  <path d="M23.0996 28.4374V21.762H27.2984C28.2609 21.762 29.4761 20.5028 29.6084 19.5491C30.1378 15.7102 26.372 15.9792 23.7252 16.0892C23.5928 20.246 22.51 24.733 18.8285 27.1048C15.147 29.4766 8.85469 29.5378 4.96863 27.8261C-1.70865 24.8919 -1.6485 15.8447 5.18519 13.2405L6.80939 12.6659H0.52914V0.6967H11.309V6.61407H7.36283C7.21845 6.61407 6.29206 7.12756 6.12362 7.26205C4.92051 8.28903 4.92051 10.4775 6.12362 11.5045C7.32673 12.5314 9.28781 12.0179 10.8037 12.1524C10.912 6.90749 13.4265 2.07823 18.6721 0.586666C23.9177 -0.892676 30.3062 0.244339 32.8087 5.34257C33.2418 6.22284 33.9998 8.50909 33.9998 9.43827V28.3152M23.0875 12.2991C23.0274 8.26457 20.8858 5.7827 16.7471 5.99054C13.1257 6.16171 11.3451 8.85142 11.297 12.2991H23.0875ZM23.0875 12.9227H14.377C12.9573 12.9227 11.4534 14.4142 10.9962 15.698C8.26516 23.2169 20.7775 25.4665 22.7507 18.3143C22.8469 17.972 23.0875 16.9206 23.0875 16.6394V12.9227Z" fill="black"/>
</svg>
